<svg xmlns="http://www.w3.org/2000/svg" viewBox="0 0 100 100" width="100%" height="100%">
  <defs>
    <linearGradient id="grad1" x1="0%" y1="0%" x2="100%" y2="100%">
      <stop offset="0%" style="stop-color:#6C63FF;stop-opacity:1" />
      <stop offset="100%" style="stop-color:#3ECFCF;stop-opacity:1" />
    </linearGradient>
    <filter id="glow">
      <feGaussianBlur stdDeviation="2.5" result="coloredBlur"/>
      <feMerge>
        <feMergeNode in="coloredBlur"/>
        <feMergeNode in="SourceGraphic"/>
      </feMerge>
    </filter>
  </defs>
  
  <!-- Stylized Shopping Cart -->
  <path d="M 20 20 L 30 20 L 40 60 L 80 60 L 90 30 L 35 30" fill="none" stroke="url(#grad1)" stroke-width="8" stroke-linecap="round" stroke-linejoin="round"/>
  
  <!-- Cart Wheels -->
  <circle cx="45" cy="75" r="6" fill="url(#grad1)"/>
  <circle cx="75" cy="75" r="6" fill="url(#grad1)"/>
  
  <!-- The Stylized 'i' within the cart -->
  <rect x="58" y="25" width="8" height="25" rx="4" fill="url(#grad1)"/>
  
  <!-- Glowing Neural Node as the dot of 'i' -->
  <circle cx="62" cy="15" r="6" fill="url(#grad1)" filter="url(#glow)"/>
  <!-- Neural connections from the dot -->
  <line x1="62" y1="15" x2="52" y2="5" stroke="url(#grad1)" stroke-width="2" />
  <line x1="62" y1="15" x2="72" y2="5" stroke="url(#grad1)" stroke-width="2" />
  <line x1="62" y1="15" x2="75" y2="20" stroke="url(#grad1)" stroke-width="2" />
  
  <!-- Sparkles -->
  <path d="M 85 10 L 88 18 L 96 21 L 88 24 L 85 32 L 82 24 L 74 21 L 82 18 Z" fill="#3ECFCF" opacity="0.8"/>
  <path d="M 25 45 L 27 50 L 32 52 L 27 54 L 25 59 L 23 54 L 18 52 L 23 50 Z" fill="#6C63FF" opacity="0.6"/>
</svg>
